<svg xmlns="http://www.w3.org/2000/svg" width="760" height="432" viewBox="0 0 760 432" role="img" aria-label="Quality Signals">
<defs>
<linearGradient id="bar" x1="0%" y1="0%" x2="100%" y2="0%">
<stop offset="0%" stop-color="#0f766e"/>
<stop offset="100%" stop-color="#f97316"/>
</linearGradient>
</defs>
<rect width="760" height="432" rx="28" fill="#fffdf8" stroke="#eadfca"/>
<text x="32" y="38" font-family="Avenir Next, Helvetica Neue, Arial, sans-serif" font-size="24" font-weight="700" fill="#111827">Quality Signals</text>
<text x="32" y="62" font-family="Avenir Next, Helvetica Neue, Arial, sans-serif" font-size="13" fill="#6b7280">frequent quality / defect language</text>
<text x="32" y="98" font-family="Avenir Next, Helvetica Neue, Arial, sans-serif" font-size="16" font-weight="600" fill="#1f2937">Failure</text>
<rect x="250" y="82" width="420" height="14" rx="7" fill="#efe8da"/>
<rect x="250" y="82" width="420.0" height="14" rx="7" fill="url(#bar)"/>
<text x="690" y="96" text-anchor="end" font-family="SFMono-Regular, Menlo, monospace" font-size="13" fill="#6b7280">4.00</text>
<text x="32" y="156" font-family="Avenir Next, Helvetica Neue, Arial, sans-serif" font-size="16" font-weight="600" fill="#1f2937">Audit</text>
<rect x="250" y="140" width="420" height="14" rx="7" fill="#efe8da"/>
<rect x="250" y="140" width="315.0" height="14" rx="7" fill="url(#bar)"/>
<text x="690" y="154" text-anchor="end" font-family="SFMono-Regular, Menlo, monospace" font-size="13" fill="#6b7280">3.00</text>
<text x="32" y="214" font-family="Avenir Next, Helvetica Neue, Arial, sans-serif" font-size="16" font-weight="600" fill="#1f2937">Regression</text>
<rect x="250" y="198" width="420" height="14" rx="7" fill="#efe8da"/>
<rect x="250" y="198" width="315.0" height="14" rx="7" fill="url(#bar)"/>
<text x="690" y="212" text-anchor="end" font-family="SFMono-Regular, Menlo, monospace" font-size="13" fill="#6b7280">3.00</text>
<text x="32" y="272" font-family="Avenir Next, Helvetica Neue, Arial, sans-serif" font-size="16" font-weight="600" fill="#1f2937">Hardening</text>
<rect x="250" y="256" width="420" height="14" rx="7" fill="#efe8da"/>
<rect x="250" y="256" width="210.0" height="14" rx="7" fill="url(#bar)"/>
<text x="690" y="270" text-anchor="end" font-family="SFMono-Regular, Menlo, monospace" font-size="13" fill="#6b7280">2.00</text>
<text x="32" y="330" font-family="Avenir Next, Helvetica Neue, Arial, sans-serif" font-size="16" font-weight="600" fill="#1f2937">False Positive</text>
<rect x="250" y="314" width="420" height="14" rx="7" fill="#efe8da"/>
<rect x="250" y="314" width="105.0" height="14" rx="7" fill="url(#bar)"/>
<text x="690" y="328" text-anchor="end" font-family="SFMono-Regular, Menlo, monospace" font-size="13" fill="#6b7280">1.00</text>
<text x="32" y="388" font-family="Avenir Next, Helvetica Neue, Arial, sans-serif" font-size="16" font-weight="600" fill="#1f2937">Bug</text>
<rect x="250" y="372" width="420" height="14" rx="7" fill="#efe8da"/>
<rect x="250" y="372" width="105.0" height="14" rx="7" fill="url(#bar)"/>
<text x="690" y="386" text-anchor="end" font-family="SFMono-Regular, Menlo, monospace" font-size="13" fill="#6b7280">1.00</text>
</svg>